<svg xmlns="http://www.w3.org/2000/svg" width="256" height="256" viewBox="0 0 100 100"><rect width="100" height="100" rx="20" fill="#2565c7"></rect><path fill="#fff" d="M50.35 44.30L50.35 44.30Q59.05 44.30 59.05 48.70L59.05 48.70Q59.05 53.80 49.05 53.80L49.05 53.80Q46.85 53.80 44.25 53.00L44.25 53.00Q41.35 55.00 39.80 58Q38.25 61 38.25 66.65Q38.25 72.30 42.70 75Q47.15 77.70 53.20 77.70Q59.25 77.70 63 75.75Q66.75 73.80 69.55 71.50Q72.35 69.20 74.10 67.25Q75.85 65.30 76.65 65.30L76.65 65.30Q77.45 65.30 77.95 66.35Q78.45 67.40 78.45 69.10L78.45 69.10Q78.45 77.10 69.60 83.15Q60.75 89.20 48.45 89.20L48.45 89.20Q29.25 89.20 23.55 78.10L23.55 78.10Q21.55 74.20 21.55 68.70L21.55 68.70Q21.55 54.40 35.85 48.70L35.85 48.70Q28.55 43.60 28.55 33.30L28.55 33.30Q28.55 28.40 31.25 24.20L31.25 24.20Q28.75 21.40 27.20 18.30Q25.65 15.20 25.65 13.60L25.65 13.60Q25.65 10.80 27.65 10.80L27.65 10.80Q29.05 10.80 31.10 12.95Q33.15 15.10 34.45 16.40Q35.75 17.70 37.15 18.50L37.15 18.50Q45.65 13.30 57.15 13.30Q68.65 13.30 72.45 19.70L72.45 19.70Q73.85 22.10 73.85 25.60L73.85 25.60Q73.85 30.90 69.25 34.50Q64.65 38.10 57.15 38.10Q49.65 38.10 43.15 33.30L43.15 33.30Q43.05 33.70 43.05 34.10L43.05 34.10L43.05 36.30Q43.05 38.10 44.20 40.55Q45.35 43 47.05 44.60L47.05 44.60Q48.55 44.30 50.35 44.30ZM62.75 27.10L62.75 27.10Q62.75 23.20 56.35 23.20Q49.95 23.20 46.05 27.10L46.05 27.10Q51.45 30.40 57.10 30.40Q62.75 30.40 62.75 27.10Z"></path></svg>